<svg xmlns="http://www.w3.org/2000/svg" viewBox="119 110 262 230"><polygon points="275.06 163.22 251.22 204.47 250.94 204.47 226.34 161.44 250.31 119.94 275.06 163.22" fill="#fff"/><polygon points="281.22 277.19 219.03 277.19 250.28 223.06 281.22 277.19" fill="#fff"/><polygon points="370.28 329.88 226.62 329.88 207.71 296.82 213.09 287.47 287.09 287.47 292.43 296.82 297.84 287.47 346.06 287.47 370.28 329.88" fill="#fff"/><polygon points="297.84 287.47 292.44 296.81 287.09 287.47 297.84 287.47" fill="#fff"/><polygon points="209.25 277.19 203.31 287.47 202.37 287.47 196.5 277.19 209.25 277.19" fill="#fff"/><polygon points="209.25 277.19 196.5 277.19 202.37 287.47 202.84 288.28 178.84 329.88 129.09 329.88 153.59 287.47 159.53 277.19 178.09 245 201.5 204.47 239.65 204.47 245.4 214.53 209.25 277.19" fill="#fff"/><polygon points="203.31 287.47 202.84 288.28 202.37 287.47 203.31 287.47" fill="#fff"/><polygon points="298.37 287.47 297.84 287.47 298.09 287 298.37 287.47" fill="#fff"/><polygon points="213.09 287.47 207.71 296.82 202.84 288.28 203.31 287.47 213.09 287.47" fill="#fff"/><polygon points="251.09 204.72 245.41 214.53 239.66 204.47 250.94 204.47 251.09 204.72" fill="#fff"/><polygon points="261.03 204.47 255.97 213.25 251.09 204.72 251.22 204.47 261.03 204.47" fill="#fff"/><polygon points="322.06 245.5 303.78 277.19 292.5 277.19 255.97 213.25 261.03 204.47 251.22 204.47 275.06 163.22 279.91 171.75 298.63 204.47 322.06 245.5" fill="#fff"/><polygon points="303.78 277.19 298.09 287 292.5 277.19 303.78 277.19" fill="#fff"/></svg>
